<?xml version="1.0" encoding="utf-8"?>
<!-- Generator: Adobe Illustrator 17.0.0, SVG Export Plug-In . SVG Version: 6.00 Build 0)  -->
<!DOCTYPE svg PUBLIC "-//W3C//DTD SVG 1.1//EN" "http://www.w3.org/Graphics/SVG/1.1/DTD/svg11.dtd">
<svg version="1.1" id="Layer_1" xmlns="http://www.w3.org/2000/svg" xmlns:xlink="http://www.w3.org/1999/xlink" x="0px" y="0px"
	 width="612px" height="792px" viewBox="0 0 612 792" enable-background="new 0 0 612 792" xml:space="preserve">
<polygon fill="#ED1E2E" stroke="#83CFC9" stroke-miterlimit="10" points="16.882,162.639 19.471,155.167 13.881,149.119 
	22.83,148.901 27.751,142.364 30.692,149.702 39.324,151.71 32.193,156.462 32.606,164.24 25.258,159.839 "/>
<polygon fill="#F99D1E" stroke="#83CFC9" stroke-miterlimit="10" points="46.057,161.784 44.595,156.937 39.258,155.256 
	44.011,152.526 44.167,147.511 48.566,150.671 53.999,149.253 51.966,153.935 55.168,158.074 49.511,157.808 "/>
<polygon fill="#F3EB41" stroke="#83CFC9" stroke-miterlimit="10" points="37.693,139.83 30.959,136.556 24.097,139.614 
	25.531,132.929 20.128,128.093 27.748,127.236 31.271,121.189 34.546,127.344 42.127,128.443 36.531,133.104 "/>
<polygon fill="#F99D1E" stroke="#83CFC9" stroke-miterlimit="10" points="49.484,139.336 46.346,137.464 42.825,138.692 
	43.866,135.469 41.459,132.883 45.241,132.764 47.274,129.937 48.571,133.086 52.234,133.926 49.253,135.991 "/>
<polygon fill="#75C043" stroke="#83CFC9" stroke-miterlimit="10" points="36.841,121.189 35.53,115.91 29.877,113.874 
	35.14,111.138 35.579,105.747 40.143,109.335 46.067,108.039 43.624,112.993 46.847,117.583 40.774,117.056 "/>
<polygon fill="#F99D1E" stroke="#83CFC9" stroke-miterlimit="10" points="52.234,123.531 50.33,120.114 46.072,119.566 
	49.153,116.905 48.425,113.149 52.234,114.922 56.042,113.149 55.315,116.905 58.396,119.566 54.138,120.114 "/>
<polygon fill="#F99D1E" stroke="#83CFC9" stroke-miterlimit="10" points="44.354,105.613 45.377,100.776 41.459,97.288 
	46.969,96.655 49.504,92.277 51.885,96.722 57.37,97.505 53.332,100.885 54.187,105.747 49.31,103.39 "/>
<polygon fill="#F99D1E" stroke="#83CFC9" stroke-miterlimit="10" points="62.02,110.327 59.261,108.244 55.759,109.076 
	57.143,106.108 55.168,103.415 58.782,103.664 61.063,101.168 61.912,104.289 65.298,105.439 62.208,107.12 "/>
<polygon fill="#F99D1E" stroke="#83CFC9" stroke-miterlimit="10" points="60.33,93.442 59.692,88.966 55.168,86.894 59.776,84.974 
	60.602,80.522 64.089,83.811 69.124,83.131 66.67,87.084 68.955,91.116 63.953,90.271 "/>
<polygon fill="#F99D1E" stroke="#83CFC9" stroke-miterlimit="10" points="70.266,102.126 68.418,98.809 64.285,98.277 
	67.276,95.695 66.57,92.049 70.266,93.771 73.962,92.049 73.256,95.695 76.246,98.277 72.114,98.809 "/>
<polygon fill="#F99D1E" stroke="#83CFC9" stroke-miterlimit="10" points="76.246,83.979 76.738,79.038 72.422,75.878 77.879,74.766 
	79.938,70.153 82.819,74.407 88.407,74.716 84.731,78.457 86.126,83.261 80.973,81.32 "/>
<polygon fill="#F99D1E" stroke="#83CFC9" stroke-miterlimit="10" points="95.02,75.382 95.231,70.811 90.854,68.381 96.11,66.782 
	97.865,62.343 100.902,65.926 106.363,65.613 102.985,69.427 104.606,73.671 99.48,72.446 "/>
<polygon fill="#ED1B2F" stroke="#83CFC9" stroke-miterlimit="10" points="299.934,356.802 307.387,361.526 314.977,358.631 
	313.395,366.525 319.377,372.98 310.947,373.134 307.054,380.018 303.425,372.22 295.037,370.02 301.225,365.046 "/>
<polygon fill="#F99D1E" stroke="#83CFC9" stroke-miterlimit="10" points="294.933,382.587 300.405,382.905 303.281,378.794 
	305.232,383.847 310.555,385.635 306.289,388.439 306.703,393.656 302.115,390.336 297.048,391.772 298.478,386.916 "/>
<polygon fill="#FDEE27" stroke="#83CFC9" stroke-miterlimit="10" points="320.067,382.505 324.928,377.696 323.054,370.691 
	329.9,374.146 336.159,371.015 335.529,377.959 341.271,383.029 334.036,383.866 331.326,390.13 327.484,383.704 "/>
<polygon fill="#F99D1E" stroke="#83CFC9" stroke-miterlimit="10" points="318.205,392.974 320.84,390.848 320.243,387.366 
	323.472,389.337 326.721,388.085 326.082,391.429 328.688,394.138 325.063,394.234 323.424,397.159 321.824,393.874 "/>
<polygon fill="#84C55E" stroke="#83CFC9" stroke-miterlimit="10" points="340.142,387.898 346.044,388.49 349.363,384.219 
	351.218,389.72 356.884,391.879 352.129,394.687 352.312,400.293 347.518,396.527 341.965,397.832 343.758,392.697 "/>
<polygon fill="#F99D1E" stroke="#83CFC9" stroke-miterlimit="10" points="334.522,400.582 338.557,400.043 340.005,396.502 
	342.22,400.071 346.378,400.672 343.713,403.417 344.835,407.33 340.972,405.457 337.507,407.275 337.785,403.372 "/>
<polygon fill="#F99D1E" stroke="#83CFC9" stroke-miterlimit="10" points="355.249,399.594 360.206,402.081 364.724,399.806 
	364.283,404.83 368.444,408.487 363.215,409.105 361.268,413.642 358.477,408.999 353.113,408.145 356.618,404.659 "/>
<polygon fill="#F99D1E" stroke="#83CFC9" stroke-miterlimit="10" points="346.636,413.485 349.419,411.759 349.24,408.424 
	352.129,410.611 355.404,409.771 354.406,412.848 356.609,415.664 353.104,415.379 351.19,417.959 350.022,414.705 "/>
<polygon fill="#F99D1E" stroke="#83CFC9" stroke-miterlimit="10" points="365.006,417.567 369.914,418.483 373.042,415.211 
	374.159,419.871 378.744,422.06 374.527,424.024 374.232,428.649 370.508,425.203 365.741,425.873 367.657,421.778 "/>
<polygon fill="#F99D1E" stroke="#83CFC9" stroke-miterlimit="10" points="353.721,423.393 357.637,422.87 359.042,419.433 
	361.192,422.897 365.228,423.48 362.641,426.144 363.729,429.942 359.98,428.124 356.618,429.888 356.887,426.101 "/>
<polygon fill="#F99D1E" stroke="#83CFC9" stroke-miterlimit="10" points="371.883,434.596 377.058,436.653 381.306,433.921 
	381.388,439.057 385.895,442.376 380.77,443.493 379.308,448.277 376.059,443.831 370.647,443.469 373.764,439.604 "/>
<polygon fill="#F99D1E" stroke="#83CFC9" stroke-miterlimit="10" points="377.256,453.838 382.094,455.527 385.575,452.502 
	386.218,457.622 390.6,460.618 386.16,462.093 385.387,466.97 382,462.762 377.14,462.78 379.487,458.704 "/>
<polygon fill="#F99D1E" stroke="#83CFC9" stroke-miterlimit="10" points="374.103,479.918 376.936,476.502 375.307,472.023 
	379.918,473.903 383.753,471.507 383.769,476.085 387.769,479.083 383.167,480.032 381.805,484.281 378.944,480.29 "/>
<polygon fill="#F99D1E" stroke="#83CFC9" stroke-miterlimit="10" points="360.926,441.998 364.192,440.379 364.335,436.733 
	367.317,439.382 371.038,438.772 369.615,442.028 371.772,445.297 367.91,444.661 365.522,447.291 364.559,443.641 "/>
<polygon fill="#F99D1E" stroke="#83CFC9" stroke-miterlimit="10" points="366.889,458.036 368.726,455.428 367.331,452.26 
	370.712,453.406 373.315,451.49 373.568,454.805 376.572,456.79 373.347,457.693 372.6,460.835 370.355,458.078 "/>
<polygon fill="#F99D1E" stroke="#83CFC9" stroke-miterlimit="10" points="369.218,466.009 372.391,467.012 374.777,465.172 
	375.08,468.263 377.92,470.057 374.934,470.964 374.304,473.913 372.155,471.382 368.926,471.411 370.583,468.94 "/>
<polygon fill="#F99D1E" stroke="#83CFC9" stroke-miterlimit="10" points="324.655,408.707 327.017,405.17 325.062,400.974 
	329.595,402.41 332.998,399.776 333.437,404.2 337.495,406.767 333.233,408.066 332.338,412.287 329.266,408.666 "/>
<polygon fill="#F99D1E" stroke="#83CFC9" stroke-miterlimit="10" points="344.965,420.693 348.005,419.57 348.473,416.43 
	350.862,418.973 354.21,418.762 352.646,421.457 354.248,424.467 350.892,423.588 348.534,425.66 348.024,422.422 "/>
<polygon fill="#F99D1E" stroke="#83CFC9" stroke-miterlimit="10" points="354.988,433.29 358.904,432.767 360.309,429.33 
	362.46,432.794 366.495,433.377 363.908,436.041 364.997,439.839 361.248,438.021 357.885,439.785 358.155,435.998 "/>
<polygon fill="#F99D1E" stroke="#83CFC9" stroke-miterlimit="10" points="337.971,414.024 341.052,412.882 341.523,409.697 
	343.948,412.274 347.343,412.056 345.761,414.791 347.388,417.842 343.985,416.955 341.596,419.058 341.075,415.775 "/>
<polygon fill="#F99D1E" stroke="#83CFC9" stroke-miterlimit="10" points="307.879,397.175 311.151,395.357 311.124,391.575 
	314.308,394.189 318.095,393.396 316.791,396.83 319.159,400.122 315.169,399.63 312.845,402.458 311.683,398.72 "/>
<polygon fill="#F99D1E" stroke="#83CFC9" stroke-miterlimit="10" points="124.584,72.619 120.025,70.795 115.745,73.089 
	116.293,68.685 112.508,65.787 117.406,64.889 119.347,60.805 121.826,64.653 126.811,65.027 123.444,68.304 "/>
<polygon fill="#F99D1E" stroke="#83CFC9" stroke-miterlimit="10" points="87.757,92.056 84.952,89.53 81.013,90.144 82.859,87 
	80.982,83.871 84.928,84.455 87.708,81.907 88.3,85.412 91.894,86.966 88.315,88.548 "/>
<polygon fill="#F99D1E" stroke="#83CFC9" stroke-miterlimit="10" points="102.915,83.594 99.527,82.516 96.604,84.378 96.713,81.19 
	93.811,79.303 97.268,78.41 98.397,75.382 100.424,78.018 104.024,78.034 101.82,80.556 "/>
<polygon fill="#F99D1E" stroke="#83CFC9" stroke-miterlimit="10" points="111.237,79.586 111.303,76.611 108.574,74.877 
	111.789,74.013 112.808,71.178 114.728,73.62 118.087,73.602 116.059,75.974 117.116,78.799 113.943,77.823 "/>
<polygon fill="#F99D1E" stroke="#83CFC9" stroke-miterlimit="10" points="64.157,130.51 59.603,129.162 55.767,131.721 
	55.807,127.467 51.874,125.027 56.453,123.746 57.858,119.679 60.648,123.141 65.449,123.068 62.595,126.488 "/>
<polygon fill="#F99D1E" stroke="#83CFC9" stroke-miterlimit="10" points="70.266,110.327 68.066,107.897 64.559,108.125 
	66.489,105.521 65.161,102.637 68.553,103.457 71.239,101.447 71.406,104.558 74.394,106.2 71.105,107.302 "/>
<polygon fill="#F99D1E" stroke="#83CFC9" stroke-miterlimit="10" points="80.415,99.012 78.567,95.695 74.434,95.163 77.424,92.581 
	76.719,88.936 80.415,90.657 84.111,88.936 83.405,92.581 86.395,95.163 82.263,95.695 "/>
<polygon fill="#F99D1E" stroke="#83CFC9" stroke-miterlimit="10" points="65.449,117.792 63.216,115.33 59.66,115.564 
	61.613,112.922 60.263,109.999 63.703,110.827 66.425,108.786 66.598,111.941 69.63,113.603 66.297,114.724 "/>
<polygon fill="#F99D1E" stroke="#83CFC9" stroke-miterlimit="10" points="57.37,147.511 54.351,145.019 50.322,145.81 
	52.064,142.496 49.971,139.347 54.066,139.791 56.801,137.054 57.59,140.641 61.374,142.099 57.766,143.873 "/>
<polygon fill="#EE264B" stroke="#83CFC9" stroke-miterlimit="10" points="109.703,279.409 102.481,274.918 94.26,277.758 
	96.792,270.152 91.293,263.986 100.081,263.776 104.904,257.125 107.803,264.601 116.282,266.657 109.286,271.487 "/>
<polygon fill="#F99D1E" stroke="#83CFC9" stroke-miterlimit="10" points="117.801,254.566 112.145,254.3 108.691,258.276 
	107.229,253.429 101.892,251.748 106.645,249.018 106.801,244.003 111.2,247.163 116.633,245.745 114.599,250.427 "/>
<polygon fill="#F2EA27" stroke="#83CFC9" stroke-miterlimit="10" points="91.645,254.828 86.049,259.489 87.211,266.215 
	80.477,262.941 73.615,265.999 75.049,259.314 69.646,254.478 77.266,253.62 80.789,247.574 84.064,253.729 "/>
<polygon fill="#F99D1E" stroke="#83CFC9" stroke-miterlimit="10" points="94.758,244.742 91.778,246.807 92.008,250.153 
	88.87,248.28 85.35,249.508 86.391,246.286 83.984,243.699 87.766,243.581 89.799,240.754 91.095,243.903 "/>
<polygon fill="#50B848" stroke="#83CFC9" stroke-miterlimit="10" points="71.367,249.785 65.294,249.259 61.361,253.392 
	60.05,248.113 54.397,246.077 59.66,243.341 60.099,237.95 64.663,241.538 70.587,240.242 68.145,245.195 "/>
<polygon fill="#F99D1E" stroke="#83CFC9" stroke-miterlimit="10" points="78.638,237.542 74.38,238.09 72.476,241.507 
	70.572,238.09 66.314,237.542 69.395,234.881 68.668,231.125 72.476,232.899 76.285,231.125 75.557,234.881 "/>
<polygon fill="#F99D1E" stroke="#83CFC9" stroke-miterlimit="10" points="56.965,238.643 52.088,236.286 47.132,238.509 
	48.155,233.672 44.237,230.184 49.746,229.551 52.282,225.173 54.663,229.618 60.147,230.401 56.11,233.781 "/>
<polygon fill="#F99D1E" stroke="#83CFC9" stroke-miterlimit="10" points="67.485,225.217 64.396,226.898 64.207,230.105 
	61.448,228.022 57.947,228.854 59.331,225.886 57.355,223.193 60.97,223.442 63.25,220.946 64.1,224.068 "/>
<polygon fill="#F99D1E" stroke="#83CFC9" stroke-miterlimit="10" points="48.834,221.423 43.831,220.578 40.208,223.749 
	39.57,219.273 35.046,217.201 39.654,215.281 40.481,210.829 43.967,214.118 49.002,213.438 46.548,217.391 "/>
<polygon fill="#F99D1E" stroke="#83CFC9" stroke-miterlimit="10" points="61.228,215.736 57.095,216.268 55.247,219.585 
	53.399,216.268 49.267,215.736 52.257,213.154 51.551,209.509 55.247,211.23 58.943,209.509 58.238,213.154 "/>
<polygon fill="#F99D1E" stroke="#83CFC9" stroke-miterlimit="10" points="43.592,205.091 38.439,203.149 33.713,205.809 
	34.205,200.868 29.889,197.708 35.346,196.596 37.405,191.983 40.285,196.236 45.874,196.546 42.197,200.287 "/>
<polygon fill="#F99D1E" stroke="#83CFC9" stroke-miterlimit="10" points="40.163,186.618 35.32,185.028 31.359,187.964 
	31.266,183.043 27.043,180.193 31.828,178.741 33.18,174.043 36.23,178.068 41.289,178.014 38.389,181.953 "/>
<polygon fill="#F99D1E" stroke="#83CFC9" stroke-miterlimit="10" points="46.332,160.859 42.965,164.136 44.105,168.451 
	39.546,166.627 35.266,168.921 35.814,164.516 32.029,161.619 36.927,160.72 38.868,156.637 41.347,160.485 "/>
<polygon fill="#F99D1E" stroke="#83CFC9" stroke-miterlimit="10" points="55.822,197.89 52.242,199.471 51.684,202.98 
	48.88,200.453 44.94,201.067 46.786,197.924 44.91,194.795 48.855,195.379 51.635,192.831 52.227,196.335 "/>
<polygon fill="#F99D1E" stroke="#83CFC9" stroke-miterlimit="10" points="51.42,182.504 49.215,185.026 50.311,188.064 
	46.922,186.986 43.999,188.848 44.109,185.661 41.207,183.773 44.663,182.881 45.793,179.853 47.819,182.489 "/>
<polygon fill="#F99D1E" stroke="#83CFC9" stroke-miterlimit="10" points="49.688,174.256 46.515,173.281 43.809,175.043 
	43.875,172.069 41.147,170.334 44.361,169.471 45.38,166.636 47.301,169.077 50.659,169.06 48.632,171.432 "/>
<polygon fill="#F99D1E" stroke="#83CFC9" stroke-miterlimit="10" points="89.815,229.654 86.961,233.074 88.523,237.096 
	83.969,235.748 80.133,238.307 80.173,234.053 76.24,231.613 80.819,230.332 82.224,226.265 85.014,229.727 "/>
<polygon fill="#F99D1E" stroke="#83CFC9" stroke-miterlimit="10" points="70.033,218.271 66.745,219.373 65.905,222.397 
	63.706,219.967 60.199,220.195 62.128,217.591 60.8,214.707 64.192,215.528 66.878,213.518 67.045,216.629 "/>
<polygon fill="#F99D1E" stroke="#83CFC9" stroke-miterlimit="10" points="61.021,206.224 56.888,206.756 55.04,210.073 
	53.192,206.756 49.06,206.224 52.05,203.642 51.344,199.997 55.04,201.718 58.736,199.997 58.031,203.642 "/>
<polygon fill="#F99D1E" stroke="#83CFC9" stroke-miterlimit="10" points="76.56,224.635 73.227,225.756 72.379,228.824 
	70.145,226.362 66.59,226.596 68.543,223.954 67.192,221.03 70.633,221.859 73.354,219.818 73.528,222.973 "/>
<polygon fill="#F99D1E" stroke="#83CFC9" stroke-miterlimit="10" points="105.972,240.625 102.364,242.399 101.968,246.037 
	98.949,243.545 94.92,244.336 96.662,241.022 94.569,237.873 98.664,238.317 101.399,235.58 102.188,239.167 "/>
<polygon fill="#D72027" stroke="#83CFC9" stroke-miterlimit="10" points="266.216,237.424 259.162,242.121 259.671,249.925 
	252.287,245.441 243.968,248.168 246.458,240.7 240.807,234.582 249.73,234.45 254.557,227.942 257.582,235.328 "/>
<polygon fill="#F99D1E" stroke="#83CFC9" stroke-miterlimit="10" points="242.045,222.926 240.011,227.608 243.213,231.747 
	237.557,231.481 234.103,235.457 232.641,230.61 227.304,228.929 232.057,226.199 232.212,221.184 236.612,224.344 "/>
<polygon fill="#F3EB34" stroke="#83CFC9" stroke-miterlimit="10" points="234.243,245.041 237.519,251.196 245.099,252.296 
	239.503,256.957 240.665,263.683 233.931,260.409 227.069,263.466 228.503,256.781 223.1,251.945 230.72,251.088 "/>
<polygon fill="#F99D1E" stroke="#83CFC9" stroke-miterlimit="10" points="224.377,239.302 225.673,242.451 229.336,243.291 
	226.356,245.355 226.586,248.701 223.448,246.828 219.927,248.056 220.968,244.834 218.562,242.247 222.343,242.129 "/>
<polygon fill="#70BF44" stroke="#83CFC9" stroke-miterlimit="10" points="222.563,260.566 220.121,265.52 223.343,270.11 
	217.27,269.583 213.337,273.716 212.026,268.437 206.373,266.401 211.636,263.665 212.075,258.274 216.639,261.862 "/>
<polygon fill="#F99D1E" stroke="#83CFC9" stroke-miterlimit="10" points="211.664,250.657 210.937,254.413 214.018,257.074 
	209.76,257.622 207.856,261.039 205.952,257.622 201.694,257.074 204.775,254.413 204.047,250.657 207.856,252.43 "/>
<polygon fill="#F99D1E" stroke="#83CFC9" stroke-miterlimit="10" points="206.149,269.256 202.112,272.636 202.966,277.498 
	198.09,275.141 193.133,277.364 194.157,272.527 190.239,269.039 195.748,268.406 198.283,264.028 200.665,268.473 "/>
<polygon fill="#F99D1E" stroke="#83CFC9" stroke-miterlimit="10" points="194.985,256.244 195.835,259.366 199.22,260.516 
	196.131,262.197 195.942,265.404 193.183,263.32 189.682,264.153 191.066,261.185 189.09,258.492 192.704,258.741 "/>
<polygon fill="#F99D1E" stroke="#83CFC9" stroke-miterlimit="10" points="185.148,270.784 182.694,274.738 184.979,278.769 
	179.977,277.924 176.354,281.095 175.716,276.619 171.192,274.548 175.8,272.627 176.626,268.175 180.113,271.464 "/>
<polygon fill="#F99D1E" stroke="#83CFC9" stroke-miterlimit="10" points="182.872,258.586 182.166,262.232 185.156,264.813 
	181.024,265.345 179.176,268.662 177.328,265.345 173.195,264.813 176.185,262.232 175.48,258.586 179.176,260.307 "/>
<polygon fill="#F99D1E" stroke="#83CFC9" stroke-miterlimit="10" points="165.992,270.153 162.316,273.894 163.71,278.698 
	158.558,276.757 153.831,279.416 154.323,274.475 150.007,271.315 155.464,270.203 157.523,265.59 160.403,269.844 "/>
<polygon fill="#F99D1E" stroke="#83CFC9" stroke-miterlimit="10" points="145.099,267.333 141.895,270.922 143.823,275.166 
	138.51,273.724 134.146,276.401 134.065,271.921 129.439,269.331 134.703,268.004 136.209,263.727 139.542,267.387 "/>
<polygon fill="#F99D1E" stroke="#83CFC9" stroke-miterlimit="10" points="119.347,254.177 121.826,258.025 126.811,258.399 
	123.444,261.676 124.584,265.991 120.025,264.168 115.745,266.461 116.293,262.057 112.508,259.159 117.406,258.261 "/>
<polygon fill="#F99D1E" stroke="#83CFC9" stroke-miterlimit="10" points="162.04,257.625 162.632,261.13 166.227,262.684 
	162.647,264.266 162.089,267.775 159.284,265.248 155.345,265.862 157.191,262.718 155.314,259.589 159.26,260.173 "/>
<polygon fill="#F99D1E" stroke="#83CFC9" stroke-miterlimit="10" points="144.16,256.579 146.187,259.216 149.787,259.231 
	147.583,261.753 148.679,264.791 145.29,263.713 142.367,265.575 142.477,262.387 139.574,260.5 143.031,259.608 "/>
<polygon fill="#F99D1E" stroke="#83CFC9" stroke-miterlimit="10" points="134.769,255.489 132.741,257.861 133.798,260.685 
	130.624,259.71 127.919,261.473 127.985,258.498 125.256,256.763 128.471,255.9 129.49,253.065 131.41,255.507 "/>
<polygon fill="#F99D1E" stroke="#83CFC9" stroke-miterlimit="10" points="206.649,238.803 209.439,242.265 214.24,242.192 
	211.385,245.612 212.947,249.634 208.393,248.286 204.558,250.845 204.598,246.592 200.665,244.151 205.244,242.871 "/>
<polygon fill="#F99D1E" stroke="#83CFC9" stroke-miterlimit="10" points="188.314,251.951 188.481,255.062 191.469,256.704 
	188.18,257.806 187.341,260.83 185.142,258.401 181.635,258.628 183.564,256.024 182.236,253.14 185.628,253.961 "/>
<polygon fill="#F99D1E" stroke="#83CFC9" stroke-miterlimit="10" points="172.595,255.821 171.889,259.467 174.879,262.048 
	170.747,262.58 168.899,265.897 167.051,262.58 162.918,262.048 165.909,259.467 165.203,255.821 168.899,257.542 "/>
<polygon fill="#F99D1E" stroke="#83CFC9" stroke-miterlimit="10" points="197.164,248.419 197.338,251.574 200.37,253.236 
	197.036,254.357 196.189,257.425 193.955,254.963 190.399,255.197 192.352,252.555 191.002,249.631 194.443,250.46 "/>
<polygon fill="#F99D1E" stroke="#83CFC9" stroke-miterlimit="10" points="223.421,228.583 224.21,232.171 227.994,233.629 
	224.386,235.402 223.99,239.04 220.971,236.549 216.942,237.339 218.684,234.026 216.591,230.876 220.687,231.32 "/>
<polygon fill="#E21C3E" stroke="#83CFC9" stroke-miterlimit="10" points="268.447,93.682 271.311,101.075 279.846,103.058 
	272.751,107.893 273.107,115.744 265.859,111.338 257.543,114.208 260.159,106.651 254.663,100.573 263.529,100.307 "/>
<polygon fill="#F99D1E" stroke="#83CFC9" stroke-miterlimit="10" points="245.411,109.564 249.81,112.724 255.243,111.305 
	253.21,115.988 256.411,120.127 250.755,119.86 247.301,123.837 245.839,118.99 240.502,117.308 245.255,114.579 "/>
<polygon fill="#EEE935" stroke="#83CFC9" stroke-miterlimit="10" points="266.746,122.97 274.366,122.113 277.889,116.066 
	281.164,122.221 288.745,123.32 283.149,127.981 284.311,134.707 277.577,131.433 270.715,134.491 272.149,127.806 "/>
<polygon fill="#F99D1E" stroke="#83CFC9" stroke-miterlimit="10" points="257.534,129.508 261.316,129.39 263.349,126.563 
	264.645,129.712 268.309,130.551 265.328,132.616 265.559,135.962 262.421,134.089 258.9,135.317 259.941,132.095 "/>
<polygon fill="#77C043" stroke="#83CFC9" stroke-miterlimit="10" points="279.805,137.607 284.369,141.195 290.293,139.899 
	287.851,144.853 291.073,149.443 285,148.916 281.067,153.049 279.756,147.77 274.103,145.734 279.366,142.998 "/>
<polygon fill="#F99D1E" stroke="#83CFC9" stroke-miterlimit="10" points="265.797,143.727 269.606,145.5 273.414,143.727 
	272.687,147.483 275.768,150.143 271.51,150.691 269.606,154.109 267.702,150.691 263.444,150.143 266.525,147.483 "/>
<polygon fill="#F99D1E" stroke="#83CFC9" stroke-miterlimit="10" points="284.063,154.12 286.444,158.566 291.929,159.349 
	287.891,162.729 288.746,167.591 283.869,165.234 278.913,167.456 279.936,162.62 276.019,159.131 281.528,158.499 "/>
<polygon fill="#F99D1E" stroke="#83CFC9" stroke-miterlimit="10" points="266.643,159.505 270.257,159.753 272.538,157.257 
	273.387,160.379 276.773,161.528 273.683,163.209 273.495,166.416 270.736,164.333 267.234,165.165 268.618,162.197 "/>
<polygon fill="#F99D1E" stroke="#83CFC9" stroke-miterlimit="10" points="279.214,172.285 282.7,175.574 287.735,174.894 
	285.282,178.847 287.567,182.879 282.564,182.034 278.942,185.205 278.304,180.729 273.779,178.657 278.388,176.736 "/>
<polygon fill="#F99D1E" stroke="#83CFC9" stroke-miterlimit="10" points="265.413,170.433 269.11,172.154 272.806,170.433 
	272.1,174.078 275.09,176.66 270.958,177.192 269.11,180.509 267.262,177.192 263.129,176.66 266.119,174.078 "/>
<polygon fill="#F99D1E" stroke="#83CFC9" stroke-miterlimit="10" points="272.617,188.227 275.497,192.48 281.086,192.79 
	277.409,196.531 278.804,201.335 273.651,199.393 268.925,202.053 269.417,197.112 265.101,193.952 270.558,192.84 "/>
<polygon fill="#F99D1E" stroke="#83CFC9" stroke-miterlimit="10" points="263.133,204.957 265.996,208.765 271.149,208.452 
	267.959,212.482 269.484,216.987 264.649,215.669 260.439,218.766 260.641,213.922 256.514,211.332 261.473,209.655 "/>
<polygon fill="#F99D1E" stroke="#83CFC9" stroke-miterlimit="10" points="241.049,222.585 245.948,221.686 247.889,217.603 
	250.367,221.451 255.352,221.824 251.985,225.102 253.125,229.416 248.566,227.593 244.286,229.887 244.834,225.482 "/>
<polygon fill="#F99D1E" stroke="#83CFC9" stroke-miterlimit="10" points="257.945,187.685 261.89,188.269 264.67,185.722 
	265.262,189.226 268.857,190.78 265.277,192.362 264.719,195.871 261.915,193.344 257.975,193.958 259.821,190.815 "/>
<polygon fill="#F99D1E" stroke="#83CFC9" stroke-miterlimit="10" points="251.297,202.424 254.753,201.532 255.883,198.504 
	257.909,201.14 261.509,201.156 259.305,203.677 260.401,206.715 257.012,205.638 254.089,207.499 254.199,204.312 "/>
<polygon fill="#F99D1E" stroke="#83CFC9" stroke-miterlimit="10" points="247.224,209.999 249.144,212.44 252.503,212.423 
	250.475,214.795 251.532,217.619 248.358,216.644 245.652,218.407 245.719,215.432 242.99,213.697 246.205,212.834 "/>
<polygon fill="#F99D1E" stroke="#83CFC9" stroke-miterlimit="10" points="251.521,144.289 256.1,143.008 257.505,138.941 
	260.295,142.403 265.096,142.33 262.241,145.75 263.803,149.772 259.249,148.424 255.414,150.983 255.454,146.729 "/>
<polygon fill="#F99D1E" stroke="#83CFC9" stroke-miterlimit="10" points="259.971,163.798 263.363,164.618 266.049,162.608 
	266.216,165.719 269.204,167.361 265.916,168.463 265.077,171.488 262.877,169.058 259.37,169.285 261.299,166.682 "/>
<polygon fill="#F99D1E" stroke="#83CFC9" stroke-miterlimit="10" points="259.269,178.236 262.965,179.957 266.661,178.236 
	265.955,181.881 268.946,184.463 264.813,184.995 262.965,188.312 261.117,184.995 256.985,184.463 259.975,181.881 "/>
<polygon fill="#F99D1E" stroke="#83CFC9" stroke-miterlimit="10" points="258.914,155.251 262.355,156.079 265.076,154.038 
	265.25,157.193 268.282,158.855 264.948,159.976 264.101,163.044 261.867,160.582 258.312,160.816 260.265,158.174 "/>
<polygon fill="#F99D1E" stroke="#83CFC9" stroke-miterlimit="10" points="245.73,127.001 249.826,127.445 252.561,124.708 
	253.35,128.295 257.134,129.753 253.526,131.527 253.129,135.165 250.11,132.673 246.082,133.464 247.824,130.15 "/>
<polygon fill="#ED1B2F" stroke="#83CFC9" stroke-miterlimit="10" points="116.051,49.579 124.874,49.452 129.641,42.874 
	132.639,50.346 141.179,52.471 134.209,57.216 134.721,65.108 127.414,60.569 119.191,63.321 121.645,55.771 "/>
<polygon fill="#F99D1E" stroke="#83CFC9" stroke-miterlimit="10" points="125.985,73.894 130.737,71.164 130.893,66.149 
	135.292,69.309 140.726,67.891 138.692,72.573 141.894,76.712 136.238,76.446 132.783,80.422 131.321,75.575 "/>
<polygon fill="#FDEE27" stroke="#83CFC9" stroke-miterlimit="10" points="146.972,60.064 148.406,53.379 143.003,48.543 
	150.623,47.685 154.146,41.639 157.421,47.794 165.002,48.893 159.406,53.554 160.568,60.28 153.834,57.006 "/>
<polygon fill="#F99D1E" stroke="#83CFC9" stroke-miterlimit="10" points="151.146,69.844 152.187,66.622 149.78,64.035 
	153.561,63.916 155.595,61.09 156.891,64.239 160.554,65.078 157.574,67.143 157.804,70.489 154.666,68.616 "/>
<polygon fill="#84C55E" stroke="#83CFC9" stroke-miterlimit="10" points="166.723,53.585 171.986,50.849 172.425,45.458 
	176.989,49.046 182.913,47.75 180.471,52.703 183.693,57.294 177.62,56.767 173.687,60.9 172.376,55.621 "/>
<polygon fill="#F99D1E" stroke="#83CFC9" stroke-miterlimit="10" points="168.965,67.276 172.046,64.616 171.319,60.86 
	175.127,62.633 178.935,60.86 178.208,64.616 181.289,67.276 177.031,67.825 175.127,71.242 173.223,67.825 "/>
<polygon fill="#F99D1E" stroke="#83CFC9" stroke-miterlimit="10" points="185.769,55.101 191.278,54.469 193.813,50.09 
	196.194,54.536 201.679,55.318 197.641,58.698 198.496,63.56 193.619,61.204 188.663,63.426 189.686,58.59 "/>
<polygon fill="#F99D1E" stroke="#83CFC9" stroke-miterlimit="10" points="186.166,71.44 187.55,68.472 185.575,65.779 
	189.189,66.028 191.47,63.532 192.32,66.654 195.705,67.803 192.615,69.484 192.427,72.691 189.668,70.608 "/>
<polygon fill="#F99D1E" stroke="#83CFC9" stroke-miterlimit="10" points="203.773,64.799 208.382,62.878 209.208,58.426 
	212.694,61.715 217.729,61.036 215.276,64.989 217.561,69.021 212.558,68.175 208.936,71.346 208.298,66.871 "/>
<polygon fill="#F99D1E" stroke="#83CFC9" stroke-miterlimit="10" points="197.52,75.853 200.51,73.271 199.804,69.625 203.5,71.346 
	207.196,69.625 206.491,73.271 209.481,75.853 205.348,76.384 203.5,79.701 201.652,76.384 "/>
<polygon fill="#F99D1E" stroke="#83CFC9" stroke-miterlimit="10" points="218.851,75.283 224.308,74.171 226.367,69.558 
	229.248,73.812 234.837,74.121 231.16,77.862 232.555,82.666 227.402,80.724 222.676,83.384 223.168,78.443 "/>
<polygon fill="#F99D1E" stroke="#83CFC9" stroke-miterlimit="10" points="233.883,88.442 238.857,87.207 240.113,82.769 
	243.454,86.702 248.762,86.809 245.854,90.476 247.878,94.979 242.739,93.312 238.682,95.989 238.415,91.292 "/>
<polygon fill="#F99D1E" stroke="#83CFC9" stroke-miterlimit="10" points="245.986,112.494 246.535,108.09 242.75,105.193 
	247.648,104.294 249.589,100.21 252.068,104.059 257.053,104.432 253.686,107.709 254.826,112.024 250.267,110.201 "/>
<polygon fill="#F99D1E" stroke="#83CFC9" stroke-miterlimit="10" points="213.736,87.476 215.582,84.333 213.706,81.203 
	217.651,81.787 220.431,79.24 221.023,82.744 224.618,84.298 221.038,85.88 220.48,89.389 217.676,86.862 "/>
<polygon fill="#F99D1E" stroke="#83CFC9" stroke-miterlimit="10" points="227.507,97.631 227.616,94.443 224.714,92.556 
	228.171,91.663 229.3,88.635 231.327,91.271 234.927,91.287 232.723,93.809 233.818,96.847 230.43,95.769 "/>
<polygon fill="#F99D1E" stroke="#83CFC9" stroke-miterlimit="10" points="234.381,103.403 237.595,102.539 238.615,99.705 
	240.535,102.146 243.894,102.129 241.866,104.5 242.922,107.325 239.749,106.349 237.043,108.112 237.11,105.138 "/>
<polygon fill="#F99D1E" stroke="#83CFC9" stroke-miterlimit="10" points="165.157,79.477 165.197,75.224 161.264,72.784 
	165.843,71.503 167.248,67.436 170.038,70.898 174.839,70.824 171.984,74.244 173.547,78.266 168.992,76.918 "/>
<polygon fill="#F99D1E" stroke="#83CFC9" stroke-miterlimit="10" points="188.715,78.387 190.644,75.783 189.316,72.899 
	192.708,73.72 195.394,71.71 195.561,74.821 198.549,76.462 195.26,77.565 194.421,80.589 192.221,78.159 "/>
<polygon fill="#F99D1E" stroke="#83CFC9" stroke-miterlimit="10" points="203.999,83.44 206.989,80.858 206.284,77.213 
	209.98,78.934 213.676,77.213 212.97,80.858 215.96,83.44 211.828,83.972 209.98,87.289 208.132,83.972 "/>
<polygon fill="#F99D1E" stroke="#83CFC9" stroke-miterlimit="10" points="179.211,76.636 181.164,73.994 179.814,71.07 
	183.254,71.899 185.976,69.858 186.149,73.013 189.181,74.675 185.848,75.796 185.001,78.864 182.767,76.402 "/>
<polygon fill="#F99D1E" stroke="#83CFC9" stroke-miterlimit="10" points="144.805,79.013 146.548,75.7 144.454,72.55 148.55,72.994 
	151.285,70.257 152.074,73.845 155.857,75.303 152.249,77.076 151.853,80.714 148.834,78.223 "/>
<polygon fill="#ED1B2F" stroke="#83CFC9" stroke-miterlimit="10" points="398.462,39.134 407.286,39.006 412.052,32.428 
	415.05,39.9 423.59,42.026 416.62,46.771 417.132,54.663 409.826,50.124 401.602,52.876 404.057,45.325 "/>
<polygon fill="#F99D1E" stroke="#83CFC9" stroke-miterlimit="10" points="408.396,63.448 413.149,60.719 413.304,55.703 
	417.704,58.864 423.137,57.445 421.103,62.128 424.305,66.267 418.649,66 415.195,69.977 413.733,65.129 "/>
<polygon fill="#FDEE27" stroke="#83CFC9" stroke-miterlimit="10" points="429.383,49.618 430.817,42.933 425.414,38.097 
	433.034,37.24 436.557,31.193 439.832,37.348 447.413,38.447 441.817,43.109 442.979,49.835 436.245,46.56 "/>
<polygon fill="#F99D1E" stroke="#83CFC9" stroke-miterlimit="10" points="433.557,59.398 434.598,56.176 432.191,53.589 
	435.973,53.471 438.006,50.644 439.302,53.793 442.965,54.632 439.985,56.697 440.216,60.043 437.077,58.17 "/>
<polygon fill="#84C55E" stroke="#83CFC9" stroke-miterlimit="10" points="449.134,43.14 454.397,40.404 454.836,35.012 
	459.4,38.601 465.324,37.304 462.882,42.258 466.104,46.848 460.031,46.321 456.098,50.454 454.787,45.175 "/>
<polygon fill="#F99D1E" stroke="#83CFC9" stroke-miterlimit="10" points="451.376,56.831 454.457,54.171 453.73,50.414 
	457.538,52.188 461.347,50.414 460.619,54.171 463.7,56.831 459.442,57.379 457.538,60.797 455.634,57.379 "/>
<polygon fill="#F99D1E" stroke="#83CFC9" stroke-miterlimit="10" points="468.18,44.655 473.689,44.023 476.224,39.644 
	478.605,44.09 484.09,44.873 480.053,48.253 480.907,53.115 476.03,50.758 471.074,52.98 472.098,48.144 "/>
<polygon fill="#F99D1E" stroke="#83CFC9" stroke-miterlimit="10" points="468.578,60.995 469.962,58.026 467.986,55.334 
	471.6,55.583 473.881,53.086 474.731,56.208 478.116,57.358 475.027,59.038 474.838,62.245 472.079,60.162 "/>
<polygon fill="#F99D1E" stroke="#83CFC9" stroke-miterlimit="10" points="486.184,54.353 490.793,52.433 491.619,47.981 
	495.106,51.27 500.141,50.59 497.687,54.543 499.972,58.575 494.969,57.73 491.347,60.901 490.709,56.425 "/>
<polygon fill="#F99D1E" stroke="#83CFC9" stroke-miterlimit="10" points="479.931,65.407 482.921,62.825 482.215,59.179 
	485.912,60.901 489.608,59.179 488.902,62.825 491.892,65.407 487.76,65.939 485.912,69.256 484.064,65.939 "/>
<polygon fill="#F99D1E" stroke="#83CFC9" stroke-miterlimit="10" points="501.263,64.838 506.72,63.725 508.779,59.113 
	511.659,63.366 517.248,63.675 513.571,67.416 514.966,72.22 509.813,70.279 505.087,72.938 505.579,67.998 "/>
<polygon fill="#F99D1E" stroke="#83CFC9" stroke-miterlimit="10" points="516.295,77.997 521.268,76.762 522.524,72.324 
	525.866,76.257 531.173,76.364 528.265,80.03 530.289,84.534 525.15,82.867 521.094,85.543 520.826,80.846 "/>
<polygon fill="#F99D1E" stroke="#83CFC9" stroke-miterlimit="10" points="528.398,102.048 528.946,97.644 525.161,94.747 
	530.06,93.848 532,89.764 534.479,93.613 539.464,93.986 536.097,97.264 537.237,101.578 532.678,99.755 "/>
<polygon fill="#F99D1E" stroke="#83CFC9" stroke-miterlimit="10" points="496.147,77.03 497.993,73.887 496.117,70.758 
	500.062,71.342 502.842,68.794 503.434,72.298 507.029,73.853 503.45,75.434 502.891,78.943 500.087,76.416 "/>
<polygon fill="#F99D1E" stroke="#83CFC9" stroke-miterlimit="10" points="509.918,87.185 510.028,83.998 507.125,82.11 
	510.582,81.218 511.711,78.19 513.738,80.826 517.338,80.842 515.134,83.363 516.23,86.401 512.841,85.324 "/>
<polygon fill="#F99D1E" stroke="#83CFC9" stroke-miterlimit="10" points="516.792,92.957 520.007,92.094 521.026,89.259 
	522.946,91.7 526.305,91.683 524.277,94.055 525.334,96.879 522.16,95.904 519.455,97.667 519.521,94.692 "/>
<polygon fill="#F99D1E" stroke="#83CFC9" stroke-miterlimit="10" points="447.568,69.032 447.608,64.779 443.675,62.338 
	448.254,61.058 449.659,56.99 452.449,60.452 457.25,60.379 454.396,63.799 455.958,67.821 451.404,66.473 "/>
<polygon fill="#F99D1E" stroke="#83CFC9" stroke-miterlimit="10" points="471.126,67.941 473.055,65.337 471.727,62.454 
	475.119,63.274 477.805,61.264 477.972,64.375 480.96,66.017 477.671,67.119 476.832,70.143 474.632,67.714 "/>
<polygon fill="#F99D1E" stroke="#83CFC9" stroke-miterlimit="10" points="486.41,72.995 489.401,70.413 488.695,66.767 
	492.391,68.488 496.087,66.767 495.381,70.413 498.371,72.995 494.239,73.526 492.391,76.843 490.543,73.526 "/>
<polygon fill="#F99D1E" stroke="#83CFC9" stroke-miterlimit="10" points="461.622,66.191 463.575,63.548 462.225,60.625 
	465.666,61.454 468.387,59.413 468.56,62.567 471.593,64.229 468.259,65.35 467.412,68.418 465.178,65.956 "/>
<polygon fill="#F99D1E" stroke="#83CFC9" stroke-miterlimit="10" points="427.217,68.568 428.959,65.254 426.865,62.105 
	430.961,62.549 433.696,59.812 434.485,63.399 438.269,64.857 434.661,66.631 434.264,70.269 431.245,67.777 "/>
<polygon fill="#ED1B2F" stroke="#83CFC9" stroke-miterlimit="10" points="334.544,184.382 337.149,175.951 332.366,169.386 
	340.399,168.843 345.059,161.378 347.419,169.473 355.082,171.425 348.508,176.971 348.584,185.642 342.161,180.975 "/>
<polygon fill="#F99D1E" stroke="#83CFC9" stroke-miterlimit="10" points="360.738,182.448 359.611,177.085 354.889,175.387 
	359.254,172.179 359.584,166.574 363.409,169.955 368.335,168.189 366.334,173.486 369.048,178 363.986,177.892 "/>
<polygon fill="#FDEE27" stroke="#83CFC9" stroke-miterlimit="10" points="354.07,158.215 348.156,154.785 341.887,158.429 
	343.426,150.917 338.764,145.698 345.63,144.485 349.018,137.615 351.722,144.378 358.478,145.351 353.283,150.743 "/>
<polygon fill="#F99D1E" stroke="#83CFC9" stroke-miterlimit="10" points="364.662,157.268 361.919,155.282 358.715,156.771 
	359.771,153.138 357.711,150.331 361.106,150.071 363.036,146.847 364.079,150.319 367.332,151.134 364.582,153.54 "/>
<polygon fill="#84C55E" stroke="#83CFC9" stroke-miterlimit="10" points="354.012,137.428 353.037,131.578 348.045,129.494 
	352.868,126.262 353.466,120.228 357.422,124.081 362.783,122.435 360.406,128.048 363.121,133.065 357.695,132.681 "/>
<polygon fill="#F99D1E" stroke="#83CFC9" stroke-miterlimit="10" points="367.726,139.527 366.148,135.775 362.351,135.306 
	365.215,132.232 364.705,128.062 368.053,129.914 371.535,127.806 370.74,132.025 373.402,134.892 369.563,135.647 "/>
<polygon fill="#F99D1E" stroke="#83CFC9" stroke-miterlimit="10" points="361.339,119.783 362.44,114.348 359.059,110.584 
	364.023,109.693 366.463,104.719 368.429,109.603 373.318,110.293 369.569,114.203 370.151,119.603 365.868,117.135 "/>
<polygon fill="#F99D1E" stroke="#83CFC9" stroke-miterlimit="10" points="377.002,124.454 374.607,122.221 371.435,123.267 
	372.789,119.907 371.119,116.966 374.351,117.123 376.49,114.259 377.134,117.716 380.126,118.886 377.292,120.867 "/>
<polygon fill="#F99D1E" stroke="#83CFC9" stroke-miterlimit="10" points="376.126,105.657 375.724,100.68 371.745,98.519 
	375.95,96.219 376.86,91.221 379.862,94.776 384.402,93.848 382.052,98.345 383.949,102.77 379.495,101.994 "/>
<polygon fill="#F99D1E" stroke="#83CFC9" stroke-miterlimit="10" points="384.707,115.02 383.175,111.378 379.49,110.923 
	382.269,107.939 381.774,103.892 385.023,105.69 388.403,103.644 387.632,107.739 390.215,110.521 386.489,111.254 "/>
<polygon fill="#F99D1E" stroke="#83CFC9" stroke-miterlimit="10" points="390.757,94.556 391.385,89.023 387.635,85.639 
	392.57,84.214 394.591,78.994 397.013,83.647 402.013,83.804 398.574,88.105 399.643,93.422 395.096,91.428 "/>
<polygon fill="#F99D1E" stroke="#83CFC9" stroke-miterlimit="10" points="407.917,84.326 408.279,79.215 404.447,76.649 
	409.22,74.686 410.962,69.671 413.55,73.57 418.459,73.037 415.285,77.409 416.577,82.094 412.028,80.898 "/>
<polygon fill="#F99D1E" stroke="#83CFC9" stroke-miterlimit="10" points="434.532,80.248 430.512,78.365 426.587,81.07 
	427.246,76.133 423.962,73.026 428.388,71.857 430.284,67.232 432.36,71.447 436.816,71.696 433.673,75.469 "/>
<polygon fill="#F99D1E" stroke="#83CFC9" stroke-miterlimit="10" points="400.772,103.189 398.353,100.462 394.797,101.28 
	396.572,97.708 395.008,94.277 398.524,94.796 401.113,91.858 401.511,95.751 404.675,97.366 401.406,99.252 "/>
<polygon fill="#F99D1E" stroke="#83CFC9" stroke-miterlimit="10" points="414.686,93.231 411.688,92.141 408.996,94.318 
	409.215,90.755 406.684,88.745 409.818,87.632 410.945,84.213 412.662,87.089 415.89,86.985 413.818,89.875 "/>
<polygon fill="#F99D1E" stroke="#83CFC9" stroke-miterlimit="10" points="422.299,88.476 422.471,85.152 420.09,83.307 
	423.005,82.235 424.027,79.035 425.656,81.697 428.669,81.565 426.76,84.281 427.601,87.399 424.792,86.417 "/>
<polygon fill="#F99D1E" stroke="#83CFC9" stroke-miterlimit="10" points="378.153,146.919 374.121,145.567 370.584,148.553 
	370.781,143.802 367.347,141.209 371.502,139.625 372.916,135.037 375.286,138.809 379.594,138.566 376.905,142.48 "/>
<polygon fill="#F99D1E" stroke="#83CFC9" stroke-miterlimit="10" points="384.396,124.177 382.516,121.538 379.362,121.91 
	381.191,118.937 380.109,115.762 383.12,116.564 385.605,114.23 385.637,117.698 388.254,119.431 385.263,120.772 "/>
<polygon fill="#F99D1E" stroke="#83CFC9" stroke-miterlimit="10" points="393.925,111.202 392.394,107.56 388.708,107.105 
	391.487,104.122 390.993,100.075 394.242,101.873 397.621,99.827 396.85,103.921 399.434,106.704 395.708,107.436 "/>
<polygon fill="#F99D1E" stroke="#83CFC9" stroke-miterlimit="10" points="379.794,132.675 377.884,130.001 374.687,130.382 
	376.538,127.365 375.438,124.147 378.492,124.956 381.01,122.586 381.046,126.103 383.702,127.857 380.67,129.221 "/>
<polygon fill="#F99D1E" stroke="#83CFC9" stroke-miterlimit="10" points="371.423,166.131 368.81,163.45 365.168,164.468 
	366.856,160.71 365.098,157.263 368.753,157.621 371.309,154.473 371.881,158.453 375.219,159.954 371.916,162.055 "/>
<polygon fill="#ED1B2F" stroke="#83CFC9" stroke-miterlimit="10" points="458.32,290.518 451.107,285.435 443.385,287.955 
	445.351,280.148 439.691,273.409 448.119,273.666 452.344,266.981 455.587,274.948 463.857,277.555 457.434,282.221 "/>
<polygon fill="#F99D1E" stroke="#83CFC9" stroke-miterlimit="10" points="464.576,265.008 459.126,264.423 456.052,268.389 
	454.351,263.246 449.121,261.2 453.519,258.607 453.361,253.377 457.781,256.917 462.913,255.73 461.246,260.511 "/>
<polygon fill="#FDEE27" stroke="#83CFC9" stroke-miterlimit="10" points="439.467,263.861 434.378,268.426 435.907,275.515 
	429.238,271.729 422.834,274.55 423.802,267.646 418.315,262.3 425.582,261.819 428.595,255.694 432.118,262.301 "/>
<polygon fill="#F99D1E" stroke="#83CFC9" stroke-miterlimit="10" points="441.84,253.495 439.103,255.49 439.53,258.998 
	436.401,256.871 433.094,257.963 433.897,254.653 431.426,251.821 435.051,251.902 436.831,249.06 438.269,252.42 "/>
<polygon fill="#84C55E" stroke="#83CFC9" stroke-miterlimit="10" points="419.68,257.493 413.815,256.613 410.29,260.716 
	408.707,255.131 403.153,252.697 408.04,250.125 408.131,244.518 412.735,248.514 418.346,247.482 416.304,252.523 "/>
<polygon fill="#F99D1E" stroke="#83CFC9" stroke-miterlimit="10" points="425.914,245.099 421.858,245.44 420.238,248.906 
	418.2,245.233 414.076,244.429 416.873,241.818 415.944,237.855 419.711,239.914 423.26,238.268 422.792,242.152 "/>
<polygon fill="#F99D1E" stroke="#83CFC9" stroke-miterlimit="10" points="405.163,245.072 400.334,242.345 395.71,244.397 
	396.396,239.401 392.419,235.544 397.672,235.183 399.839,230.747 402.399,235.52 407.715,236.635 404.044,239.947 "/>
<polygon fill="#F99D1E" stroke="#83CFC9" stroke-miterlimit="10" points="414.445,231.619 411.581,233.207 411.597,236.547 
	408.819,234.221 405.506,234.9 406.654,231.875 404.591,228.955 408.078,229.411 410.115,226.927 411.123,230.235 "/>
<polygon fill="#F99D1E" stroke="#83CFC9" stroke-miterlimit="10" points="396.297,226.643 391.44,225.488 388.155,228.604 
	387.268,223.894 382.795,221.484 387.104,219.728 387.624,215.123 391.175,218.748 395.969,218.312 393.855,222.308 "/>
<polygon fill="#F99D1E" stroke="#83CFC9" stroke-miterlimit="10" points="407.854,221.376 403.917,221.707 402.345,225.072 
	400.367,221.507 396.365,220.727 399.079,218.192 398.177,214.346 401.833,216.344 405.278,214.747 404.823,218.517 "/>
<polygon fill="#F99D1E" stroke="#83CFC9" stroke-miterlimit="10" points="390.261,209.298 385.193,206.991 380.816,209.512 
	380.985,204.378 376.646,200.843 381.819,199.977 383.514,195.271 386.542,199.87 391.929,200.497 388.627,204.205 "/>
<polygon fill="#F99D1E" stroke="#83CFC9" stroke-miterlimit="10" points="385.835,189.817 381.085,187.893 377.461,190.745 
	377.069,185.599 372.838,182.393 377.346,181.136 378.356,176.303 381.533,180.672 386.388,180.891 383.844,184.848 "/>
<polygon fill="#F99D1E" stroke="#83CFC9" stroke-miterlimit="10" points="390.181,163.245 387.148,166.485 388.507,171.054 
	384.016,168.902 380.045,171.065 380.302,166.494 376.489,163.263 381.139,162.59 382.753,158.429 385.37,162.584 "/>
<polygon fill="#F99D1E" stroke="#83CFC9" stroke-miterlimit="10" points="401.567,202.441 398.225,203.899 397.904,207.533 
	395.056,204.742 391.309,205.169 392.89,201.986 390.895,198.616 394.721,199.44 397.235,196.93 398.018,200.622 "/>
<polygon fill="#F99D1E" stroke="#83CFC9" stroke-miterlimit="10" points="396.395,186.131 394.432,188.646 395.671,191.878 
	392.35,190.569 389.656,192.355 389.566,189.031 386.663,186.902 389.928,186.157 390.828,183.056 392.936,185.919 "/>
<polygon fill="#F99D1E" stroke="#83CFC9" stroke-miterlimit="10" points="394.226,177.421 391.118,176.23 388.627,177.924 
	388.508,174.821 385.781,172.861 388.816,172.133 389.621,169.228 391.615,171.882 394.84,172.046 393.038,174.414 "/>
<polygon fill="#F99D1E" stroke="#83CFC9" stroke-miterlimit="10" points="436.167,237.466 433.634,240.884 435.381,245.169 
	430.924,243.514 427.397,245.979 427.175,241.538 423.247,238.776 427.567,237.687 428.667,233.514 431.559,237.282 "/>
<polygon fill="#F99D1E" stroke="#83CFC9" stroke-miterlimit="10" points="416.467,224.502 413.376,225.474 412.755,228.588 
	410.493,225.93 407.139,225.978 408.832,223.362 407.38,220.278 410.688,221.319 413.145,219.366 413.496,222.624 "/>
<polygon fill="#F99D1E" stroke="#83CFC9" stroke-miterlimit="10" points="407.072,211.429 403.135,211.76 401.563,215.125 
	399.585,211.56 395.583,210.78 398.297,208.245 397.395,204.399 401.051,206.397 404.496,204.8 404.041,208.57 "/>
<polygon fill="#F99D1E" stroke="#83CFC9" stroke-miterlimit="10" points="423.127,231.504 419.993,232.494 419.367,235.652 
	417.071,232.96 413.67,233.011 415.384,230.357 413.907,227.23 417.263,228.283 419.752,226.299 420.112,229.603 "/>
<polygon fill="#F99D1E" stroke="#83CFC9" stroke-miterlimit="10" points="452.358,249.804 449.001,251.46 448.844,255.239 
	445.791,252.472 441.97,253.079 443.44,249.713 441.236,246.309 445.198,246.996 447.657,244.285 448.634,248.075 "/>
<polygon fill="#ED1B2F" stroke="#83CFC9" stroke-miterlimit="10" points="600.792,210.898 593.729,216.188 593.74,224.311 
	586.922,220.029 578.764,223.328 581.613,215.393 576.561,209.309 585.14,208.686 590.175,201.627 592.628,209.178 "/>
<polygon fill="#F99D1E" stroke="#83CFC9" stroke-miterlimit="10" points="578.464,197.066 576.224,202.068 579.046,206.217 
	573.629,206.246 570.067,210.587 568.96,205.604 563.937,204.137 568.67,201.028 569.127,195.781 573.159,198.843 "/>
<polygon fill="#FDEE27" stroke="#83CFC9" stroke-miterlimit="10" points="569.615,220.591 572.383,226.842 579.598,227.579 
	573.936,232.751 574.64,239.714 568.373,236.66 561.594,240.226 563.382,233.166 558.488,228.408 565.86,227.098 "/>
<polygon fill="#F99D1E" stroke="#83CFC9" stroke-miterlimit="10" points="560.489,215.132 561.541,218.351 565.008,219.029 
	562.019,221.348 562.035,224.83 559.136,223.044 555.679,224.518 556.876,221.095 554.723,218.524 558.363,218.195 "/>
<polygon fill="#84C55E" stroke="#83CFC9" stroke-miterlimit="10" points="557.443,237.442 554.794,242.749 557.608,247.368 
	551.806,247.148 547.776,251.678 546.84,246.236 541.535,244.416 546.758,241.272 547.51,235.617 551.674,239.117 "/>
<polygon fill="#F99D1E" stroke="#83CFC9" stroke-miterlimit="10" points="547.582,227.683 546.653,231.646 549.45,234.258 
	545.326,235.061 543.288,238.735 541.668,235.268 537.612,234.927 540.734,231.981 540.266,228.097 543.815,229.742 "/>
<polygon fill="#F99D1E" stroke="#83CFC9" stroke-miterlimit="10" points="541.144,247.41 537.059,251.16 537.582,256.192 
	533.042,253.995 528.145,256.586 529.425,251.478 525.875,248.047 531.206,247.087 533.909,242.376 535.924,246.891 "/>
<polygon fill="#F99D1E" stroke="#83CFC9" stroke-miterlimit="10" points="531.219,234.425 531.844,237.64 535.025,238.657 
	531.954,240.58 531.577,243.941 529.054,241.914 525.64,242.974 527.151,239.799 525.418,237.093 528.875,237.157 "/>
<polygon fill="#F99D1E" stroke="#83CFC9" stroke-miterlimit="10" points="520.878,250.147 518.279,254.41 520.227,258.497 
	515.473,257.886 511.799,261.395 511.461,256.754 507.242,254.836 511.786,252.579 512.853,247.885 516,251.13 "/>
<polygon fill="#F99D1E" stroke="#83CFC9" stroke-miterlimit="10" points="519.44,237.529 518.538,241.375 521.252,243.91 
	517.25,244.69 515.272,248.255 513.7,244.891 509.763,244.559 512.794,241.7 512.339,237.93 515.784,239.528 "/>
<polygon fill="#F99D1E" stroke="#83CFC9" stroke-miterlimit="10" points="502.517,250.528 498.756,254.636 499.801,259.577 
	494.971,257.83 490.268,260.864 491.043,255.677 487.091,252.61 492.401,251.152 494.662,246.222 497.168,250.508 "/>
<polygon fill="#F99D1E" stroke="#83CFC9" stroke-miterlimit="10" points="482.621,248.718 479.324,252.64 480.916,256.969 
	475.901,255.751 471.544,258.784 471.742,254.109 467.457,251.655 472.594,249.983 474.303,245.433 477.28,249.075 "/>
<polygon fill="#F99D1E" stroke="#83CFC9" stroke-miterlimit="10" points="458.692,236.373 460.837,240.259 465.602,240.378 
	462.168,243.984 462.998,248.429 458.73,246.772 454.479,249.4 455.275,244.77 451.818,241.95 456.578,240.745 "/>
<polygon fill="#F99D1E" stroke="#83CFC9" stroke-miterlimit="10" points="499.489,237.657 499.843,241.285 503.2,242.714 
	499.665,244.56 498.914,248.256 496.375,245.769 492.553,246.624 494.519,243.24 492.908,240.074 496.662,240.469 "/>
<polygon fill="#F99D1E" stroke="#83CFC9" stroke-miterlimit="10" points="482.379,237.536 484.164,240.179 487.621,240 
	485.349,242.754 486.216,245.867 483.027,244.926 480.105,247.029 480.406,243.694 477.734,241.88 481.108,240.76 "/>
<polygon fill="#F99D1E" stroke="#83CFC9" stroke-miterlimit="10" points="473.425,236.907 471.332,239.495 472.173,242.387 
	469.185,241.541 466.478,243.529 466.724,240.418 464.21,238.754 467.35,237.678 468.503,234.662 470.198,237.107 "/>
<polygon fill="#F99D1E" stroke="#83CFC9" stroke-miterlimit="10" points="543.492,215.574 545.959,219.038 550.575,218.701 
	547.624,222.428 548.878,226.545 544.586,225.384 540.745,228.265 541.044,223.82 537.416,221.485 541.893,219.899 "/>
<polygon fill="#F99D1E" stroke="#83CFC9" stroke-miterlimit="10" points="525.074,230.303 525.044,233.544 527.813,235.096 
	524.587,236.426 523.595,239.631 521.631,237.212 518.249,237.64 520.262,234.816 519.163,231.875 522.371,232.548 "/>
<polygon fill="#F99D1E" stroke="#83CFC9" stroke-miterlimit="10" points="509.738,235.199 508.837,239.045 511.551,241.58 
	507.549,242.36 505.57,245.925 503.998,242.561 500.062,242.229 503.092,239.37 502.638,235.6 506.082,237.198 "/>
<polygon fill="#F99D1E" stroke="#83CFC9" stroke-miterlimit="10" points="533.792,226.133 533.765,229.419 536.575,230.99 
	533.305,232.342 532.303,235.593 530.308,233.143 526.878,233.581 528.916,230.714 527.798,227.734 531.052,228.413 "/>
<polygon fill="#F99D1E" stroke="#83CFC9" stroke-miterlimit="10" points="560.229,203.987 560.767,207.692 564.312,209.009 
	560.738,211.058 560.134,214.879 557.387,212.441 553.469,213.485 555.345,209.93 553.527,206.753 557.434,206.995 "/>
<polygon fill="#ED1B2F" stroke="#83CFC9" stroke-miterlimit="10" points="560.175,61.789 563.023,70.141 570.752,72.641 
	564.573,77.802 565.19,86.58 558.523,81.418 551.176,84.343 553.235,75.992 548.076,69.021 556.016,69.022 "/>
<polygon fill="#F99D1E" stroke="#83CFC9" stroke-miterlimit="10" points="540.121,78.75 544.185,82.426 549.003,81.025 
	547.357,86.185 550.385,90.914 545.303,90.427 542.356,94.751 540.862,89.289 536.013,87.233 540.171,84.345 "/>
<polygon fill="#FDEE27" stroke="#83CFC9" stroke-miterlimit="10" points="559.759,94.436 566.56,93.734 569.49,87.101 
	572.66,94.083 579.499,95.565 574.658,100.582 575.955,108.132 569.792,104.25 563.755,107.433 564.788,100.017 "/>
<polygon fill="#F99D1E" stroke="#83CFC9" stroke-miterlimit="10" points="551.747,101.427 555.134,101.422 556.85,98.334 
	558.131,101.893 561.448,102.954 558.854,105.16 559.187,108.903 556.302,106.706 553.192,107.96 554.003,104.396 "/>
<polygon fill="#84C55E" stroke="#83CFC9" stroke-miterlimit="10" points="572.024,111.218 576.252,115.378 581.515,114.13 
	579.513,119.579 582.576,124.812 577.111,124.021 573.741,128.503 572.365,122.565 567.219,120.102 571.835,117.224 "/>
<polygon fill="#F99D1E" stroke="#83CFC9" stroke-miterlimit="10" points="559.696,117.581 563.178,119.69 566.526,117.837 
	566.016,122.007 568.879,125.081 565.082,125.55 563.504,129.302 561.667,125.422 557.828,124.667 560.49,121.8 "/>
<polygon fill="#F99D1E" stroke="#83CFC9" stroke-miterlimit="10" points="576.468,129.8 578.772,134.844 583.719,135.902 
	580.227,139.541 581.178,144.999 576.715,142.203 572.355,144.519 573.09,139.152 569.445,135.125 574.361,134.604 "/>
<polygon fill="#F99D1E" stroke="#83CFC9" stroke-miterlimit="10" points="561.051,135.228 564.302,135.627 566.252,132.916 
	567.132,136.43 570.211,137.827 567.505,139.6 567.458,143.175 564.905,140.756 561.796,141.568 562.925,138.3 "/>
<polygon fill="#F99D1E" stroke="#83CFC9" stroke-miterlimit="10" points="572.808,149.92 576.059,153.71 580.548,153.12 
	578.498,157.452 580.7,162.031 576.182,160.919 573.054,164.338 572.312,159.319 568.176,156.854 572.236,154.863 "/>
<polygon fill="#F99D1E" stroke="#83CFC9" stroke-miterlimit="10" points="560.363,147.389 563.743,149.435 566.992,147.637 
	566.497,151.684 569.276,154.667 565.591,155.123 564.059,158.764 562.277,154.999 558.551,154.266 561.134,151.483 "/>
<polygon fill="#F99D1E" stroke="#83CFC9" stroke-miterlimit="10" points="567.497,167.5 570.241,172.347 575.264,172.879 
	572.109,176.934 573.542,182.344 568.848,180.004 564.71,182.815 564.964,177.314 560.974,173.641 565.825,172.582 "/>
<polygon fill="#F99D1E" stroke="#83CFC9" stroke-miterlimit="10" points="559.626,185.863 562.338,190.211 566.947,190.035 
	564.239,194.428 565.777,199.509 561.392,197.876 557.734,201.192 557.732,195.79 553.932,192.759 558.317,191.053 "/>
<polygon fill="#F99D1E" stroke="#83CFC9" stroke-miterlimit="10" points="540.492,204.806 544.85,203.967 546.436,199.472 
	548.805,203.853 553.288,204.437 550.394,207.983 551.579,212.839 547.422,210.651 543.671,213.068 543.996,208.168 "/>
<polygon fill="#F99D1E" stroke="#83CFC9" stroke-miterlimit="10" points="554.32,166.403 557.88,167.188 560.276,164.436 
	560.94,168.369 564.222,170.225 561.072,171.871 560.705,175.77 558.094,172.855 554.585,173.408 556.121,169.96 "/>
<polygon fill="#F99D1E" stroke="#83CFC9" stroke-miterlimit="10" points="548.917,182.638 551.983,181.757 552.881,178.414 
	554.798,181.425 558.027,181.564 556.146,184.306 557.243,187.735 554.164,186.418 551.613,188.398 551.591,184.843 "/>
<polygon fill="#F99D1E" stroke="#83CFC9" stroke-miterlimit="10" points="545.552,190.959 547.366,193.75 550.378,193.843 
	548.649,196.424 549.704,199.613 546.821,198.417 544.462,200.295 544.408,196.975 541.896,194.947 544.745,194.091 "/>
<polygon fill="#F99D1E" stroke="#83CFC9" stroke-miterlimit="10" points="546.915,117.73 550.972,116.454 552.078,111.959 
	554.711,115.918 559.013,115.998 556.583,119.721 558.136,124.264 554.002,122.606 550.659,125.335 550.534,120.587 "/>
<polygon fill="#F99D1E" stroke="#83CFC9" stroke-miterlimit="10" points="555.232,139.798 558.305,140.828 560.637,138.674 
	560.905,142.153 563.646,144.086 560.739,145.207 560.101,148.556 558.037,145.769 554.901,145.905 556.532,143.062 "/>
<polygon fill="#F99D1E" stroke="#83CFC9" stroke-miterlimit="10" points="555.149,155.896 558.529,157.942 561.778,156.144 
	561.283,160.191 564.062,163.174 560.377,163.63 558.845,167.271 557.063,163.506 553.337,162.773 555.92,159.99 "/>
<polygon fill="#F99D1E" stroke="#83CFC9" stroke-miterlimit="10" points="553.96,130.218 557.077,131.259 559.44,129.071 
	559.715,132.6 562.497,134.557 559.55,135.697 558.907,139.095 556.81,136.271 553.631,136.413 555.282,133.528 "/>
<polygon fill="#F99D1E" stroke="#83CFC9" stroke-miterlimit="10" points="541.068,98.231 544.757,98.864 547.106,95.9 
	547.949,99.932 551.397,101.688 548.229,103.547 548.012,107.596 545.21,104.712 541.628,105.459 543.064,101.818 "/>
<polygon fill="#F99D1E" stroke="#83CFC9" stroke-miterlimit="10" points="320.248,415.159 317.259,412.805 313.626,413.934 
	314.94,410.363 312.744,407.257 316.546,407.403 318.822,404.355 319.857,408.016 323.46,409.238 320.298,411.354 "/>
<polygon fill="#F99D1E" stroke="#83CFC9" stroke-miterlimit="10" points="333.912,424.099 329.197,423.526 326.051,427.086 
	325.139,422.424 320.782,420.532 324.934,418.224 325.386,413.495 328.864,416.731 333.501,415.7 331.499,420.008 "/>
<polygon fill="#F99D1E" stroke="#83CFC9" stroke-miterlimit="10" points="346.485,435.434 340.842,433.008 335.644,436.282 
	336.208,430.165 331.488,426.233 337.48,424.879 339.761,419.176 342.9,424.455 349.029,424.862 344.978,429.479 "/>
<polygon fill="#F99D1E" stroke="#83CFC9" stroke-miterlimit="10" points="357.278,447.518 351.197,448.413 348.487,453.929 
	345.757,448.423 339.673,447.55 344.067,443.252 343.017,437.196 348.462,440.046 353.897,437.176 352.869,443.236 "/>
<polygon fill="#F99D1E" stroke="#83CFC9" stroke-miterlimit="10" points="359.341,470.487 356.453,466.064 351.173,465.936 
	354.487,461.822 352.977,456.761 357.913,458.641 362.26,455.641 361.997,460.917 366.194,464.124 361.095,465.504 "/>
<polygon fill="#ED1B2F" stroke="#83CFC9" stroke-miterlimit="10" points="195.443,482.902 198.41,474.592 193.915,467.826 
	201.964,467.63 206.942,460.373 208.949,468.563 216.522,470.844 209.714,476.101 209.415,484.767 203.2,479.827 "/>
<polygon fill="#F99D1E" stroke="#83CFC9" stroke-miterlimit="10" points="221.696,482.101 220.802,476.694 216.158,474.794 
	220.657,471.778 221.229,466.192 224.904,469.735 229.902,468.183 227.674,473.389 230.19,478.016 225.138,477.69 "/>
<polygon fill="#FDEE27" stroke="#83CFC9" stroke-miterlimit="10" points="216.081,457.602 210.321,453.92 203.9,457.291 
	205.762,449.852 201.33,444.436 208.242,443.521 211.923,436.804 214.332,443.677 221.04,444.941 215.617,450.104 "/>
<polygon fill="#F99D1E" stroke="#83CFC9" stroke-miterlimit="10" points="226.704,457.113 224.049,455.011 220.784,456.361 
	221.996,452.777 220.059,449.883 223.462,449.77 225.53,446.632 226.422,450.146 229.637,451.101 226.785,453.385 "/>
<polygon fill="#84C55E" stroke="#83CFC9" stroke-miterlimit="10" points="216.921,436.833 216.199,430.945 211.302,428.648 
	216.26,425.628 217.118,419.625 220.904,423.645 226.331,422.232 223.714,427.737 226.21,432.867 220.806,432.249 "/>
<polygon fill="#F99D1E" stroke="#83CFC9" stroke-miterlimit="10" points="230.532,439.522 229.117,435.705 225.344,435.072 
	228.337,432.125 228.008,427.936 231.273,429.932 234.843,427.976 233.867,432.157 236.402,435.136 232.535,435.724 "/>
<polygon fill="#F99D1E" stroke="#83CFC9" stroke-miterlimit="10" points="225.003,419.521 226.338,414.138 223.123,410.232 
	228.121,409.556 230.772,404.692 232.526,409.656 237.38,410.556 233.467,414.301 233.815,419.721 229.642,417.071 "/>
<polygon fill="#F99D1E" stroke="#83CFC9" stroke-miterlimit="10" points="240.449,424.863 238.153,422.529 234.939,423.438 
	236.437,420.138 234.896,417.129 238.118,417.425 240.379,414.655 240.873,418.137 243.811,419.436 240.894,421.292 "/>
<polygon fill="#F99D1E" stroke="#83CFC9" stroke-miterlimit="10" points="240.387,406.046 240.199,401.057 236.318,398.725 
	240.618,396.61 241.743,391.655 244.588,395.337 249.165,394.606 246.623,398.997 248.326,403.5 243.91,402.532 "/>
<polygon fill="#F99D1E" stroke="#83CFC9" stroke-miterlimit="10" points="248.554,415.771 247.182,412.066 243.519,411.452 
	246.425,408.592 246.105,404.527 249.274,406.464 252.738,404.565 251.791,408.623 254.252,411.514 250.498,412.085 "/>
<polygon fill="#F99D1E" stroke="#83CFC9" stroke-miterlimit="10" points="255.483,395.587 256.35,390.086 252.749,386.544 
	257.741,385.333 259.986,380.205 262.204,384.958 267.193,385.332 263.572,389.48 264.41,394.839 259.953,392.649 "/>
<polygon fill="#F99D1E" stroke="#83CFC9" stroke-miterlimit="10" points="273.069,386.108 273.651,381.017 269.934,378.288 
	274.787,376.533 276.744,371.599 279.161,375.605 284.088,375.285 280.729,379.516 281.817,384.252 277.324,382.86 "/>
<polygon fill="#F99D1E" stroke="#83CFC9" stroke-miterlimit="10" points="299.835,383.183 295.901,381.129 291.862,383.661 
	292.734,378.758 289.587,375.511 294.06,374.535 296.153,369.996 298.046,374.296 302.486,374.738 299.183,378.371 "/>
<polygon fill="#F99D1E" stroke="#83CFC9" stroke-miterlimit="10" points="265.116,404.645 262.817,401.816 259.229,402.479 
	261.156,398.987 259.742,395.492 263.232,396.163 265.946,393.339 266.175,397.246 269.267,398.996 265.919,400.739 "/>
<polygon fill="#F99D1E" stroke="#83CFC9" stroke-miterlimit="10" points="279.447,395.296 276.499,394.079 273.715,396.137 
	274.088,392.587 271.647,390.47 274.825,389.493 276.099,386.126 277.69,389.073 280.92,389.109 278.725,391.907 "/>
<polygon fill="#F99D1E" stroke="#83CFC9" stroke-miterlimit="10" points="287.258,390.875 287.574,387.562 285.275,385.615 
	288.233,384.67 289.392,381.518 290.905,384.247 293.92,384.245 291.897,386.877 292.601,390.029 289.838,388.926 "/>
<polygon fill="#F99D1E" stroke="#83CFC9" stroke-miterlimit="10" points="240.63,447.357 236.659,445.832 232.997,448.662 
	233.399,443.925 230.08,441.186 234.299,439.783 235.91,435.26 238.116,439.13 242.43,439.074 239.574,442.869 "/>
<polygon fill="#F99D1E" stroke="#83CFC9" stroke-miterlimit="10" points="247.849,424.906 246.084,422.188 242.918,422.423 
	244.873,419.533 243.93,416.313 246.903,417.245 249.486,415.02 249.368,418.486 251.908,420.331 248.862,421.541 "/>
<polygon fill="#F99D1E" stroke="#83CFC9" stroke-miterlimit="10" points="257.929,412.355 256.556,408.65 252.894,408.036 
	255.8,405.176 255.48,401.111 258.648,403.048 262.113,401.149 261.166,405.207 263.627,408.098 259.873,408.669 "/>
<polygon fill="#F99D1E" stroke="#83CFC9" stroke-miterlimit="10" points="242.884,433.197 241.092,430.443 237.881,430.685 
	239.861,427.752 238.901,424.489 241.917,425.43 244.534,423.17 244.419,426.685 246.996,428.552 243.909,429.784 "/>
<polygon fill="#F99D1E" stroke="#83CFC9" stroke-miterlimit="10" points="233.076,466.26 230.581,463.469 226.898,464.329 
	228.747,460.647 227.139,457.128 230.776,457.643 233.466,454.609 233.865,458.609 237.135,460.253 233.745,462.21 "/>
<polygon fill="#F99D1E" stroke="#83CFC9" stroke-miterlimit="10" points="247.894,450.235 246.256,453.669 248.157,456.965 
	244.385,456.469 241.838,459.295 241.144,455.554 237.669,454.005 241.012,452.189 241.411,448.406 244.172,451.024 "/>
<polygon fill="#F99D1E" stroke="#83CFC9" stroke-miterlimit="10" points="253.606,434.937 254.085,439.663 258.25,441.947 
	253.903,443.864 253.018,448.531 249.852,444.989 245.14,445.589 247.53,441.484 245.503,437.188 250.146,438.192 "/>
<polygon fill="#F99D1E" stroke="#83CFC9" stroke-miterlimit="10" points="261.893,420.177 260.77,426.216 265.107,430.565 
	259.017,431.362 256.221,436.832 253.581,431.286 247.515,430.317 251.974,426.092 251.021,420.024 256.417,422.958 "/>
<polygon fill="#F99D1E" stroke="#83CFC9" stroke-miterlimit="10" points="271.304,406.988 273.516,412.722 279.494,414.151 
	274.723,418.026 275.212,424.153 270.052,420.814 264.376,423.172 265.957,417.233 261.96,412.563 268.098,412.231 "/>
<polygon fill="#F99D1E" stroke="#83CFC9" stroke-miterlimit="10" points="293.707,399.594 289.988,403.345 290.969,408.535 
	286.253,406.157 281.62,408.694 282.424,403.474 278.579,399.852 283.793,399.003 286.05,394.227 288.468,398.923 "/>
<polygon fill="#ED1B2F" stroke="#83CFC9" stroke-miterlimit="10" points="375.615,505.67 367.12,508.058 364.203,515.64 
	359.386,509.188 350.587,509.327 356.105,502.951 353.584,495.455 361.811,497.966 369.052,493.195 368.619,501.123 "/>
<polygon fill="#F99D1E" stroke="#83CFC9" stroke-miterlimit="10" points="359.771,484.721 355.879,488.579 357.016,493.467 
	351.953,491.542 347.066,494.308 347.829,489.26 343.672,486.082 349.207,484.887 351.524,480.157 354.182,484.467 "/>
<polygon fill="#FDEE27" stroke="#83CFC9" stroke-miterlimit="10" points="343.039,503.476 343.369,510.305 349.833,513.592 
	342.688,516.377 340.836,523.125 336.09,518.018 328.481,518.902 332.693,512.96 329.843,506.758 337.192,508.193 "/>
<polygon fill="#F99D1E" stroke="#83CFC9" stroke-miterlimit="10" points="336.494,495.096 336.315,498.477 339.305,500.359 
	335.681,501.445 334.441,504.699 332.38,501.988 328.624,502.117 330.975,499.356 329.893,496.182 333.406,497.187 "/>
<polygon fill="#84C55E" stroke="#83CFC9" stroke-miterlimit="10" points="325.613,514.809 321.229,518.805 322.189,524.128 
	316.857,521.832 311.465,524.605 312.553,519.191 308.26,515.582 314.265,514.532 317.005,509.528 319.627,514.293 "/>
<polygon fill="#F99D1E" stroke="#83CFC9" stroke-miterlimit="10" points="319.931,502.152 317.636,505.515 319.304,508.958 
	315.168,508.222 311.942,510.914 311.681,507.097 308.02,505.317 311.994,503.694 312.957,499.902 315.675,502.716 "/>
<polygon fill="#F99D1E" stroke="#83CFC9" stroke-miterlimit="10" points="306.817,518.234 301.655,520.26 300.329,525.143 
	296.886,521.458 291.385,522.109 294.419,517.806 292.344,513.326 297.663,514.352 301.882,510.931 302.135,515.869 "/>
<polygon fill="#F99D1E" stroke="#83CFC9" stroke-miterlimit="10" points="302.237,502.545 301.662,505.769 304.263,507.864 
	300.705,508.552 299.142,511.55 297.519,508.751 293.953,508.509 296.507,506.092 295.865,502.944 299.067,504.249 "/>
<polygon fill="#F99D1E" stroke="#83CFC9" stroke-miterlimit="10" points="286.926,513.484 282.965,516.524 283.31,521.039 
	279.096,518.755 274.404,520.705 275.76,516.254 272.516,512.944 277.569,512.477 280.255,508.482 282.021,512.644 "/>
<polygon fill="#F99D1E" stroke="#83CFC9" stroke-miterlimit="10" points="290.131,501.196 287.904,504.459 289.523,507.801 
	285.509,507.086 282.378,509.699 282.124,505.994 278.572,504.267 282.429,502.692 283.363,499.012 286.001,501.743 "/>
<polygon fill="#F99D1E" stroke="#83CFC9" stroke-miterlimit="10" points="269.661,507.223 264.673,509.7 263.867,514.686 
	259.991,511.315 254.51,512.451 257.103,507.891 254.521,503.607 260,504.16 263.885,500.376 264.678,505.277 "/>
<polygon fill="#F99D1E" stroke="#83CFC9" stroke-miterlimit="10" points="251.754,498.365 247.265,500.836 247.19,505.447 
	242.951,502.504 237.794,503.763 239.663,499.473 236.551,495.64 241.945,495.932 245.179,492.304 246.643,496.774 "/>
<polygon fill="#F99D1E" stroke="#83CFC9" stroke-miterlimit="10" points="234.02,477.378 234.573,481.782 238.955,483.658 
	234.429,485.735 233.554,490.171 230.203,487.052 225.28,487.917 227.736,483.912 225.569,480.011 230.437,480.655 "/>
<polygon fill="#F99D1E" stroke="#83CFC9" stroke-miterlimit="10" points="271.474,494.126 270.497,497.638 273.114,500.18 
	269.151,500.629 267.119,503.805 265.647,500.57 261.773,499.991 264.827,497.543 264.465,494.009 267.825,495.731 "/>
<polygon fill="#F99D1E" stroke="#83CFC9" stroke-miterlimit="10" points="255.558,487.847 256.27,490.956 259.56,492.035 
	256.449,493.785 256.134,497.002 253.499,494.974 250.015,495.883 251.498,492.88 249.659,490.225 253.211,490.397 "/>
<polygon fill="#F99D1E" stroke="#83CFC9" stroke-miterlimit="10" points="247.432,484.034 244.547,485.694 244.29,488.695 
	241.807,486.829 238.566,487.708 239.916,484.895 238.17,482.436 241.487,482.564 243.65,480.166 244.349,483.058 "/>
<polygon fill="#F99D1E" stroke="#83CFC9" stroke-miterlimit="10" points="320.479,489.383 321.532,493.504 325.96,494.852 
	321.863,497.266 321.55,501.557 317.964,498.928 313.343,500.232 315.224,496.193 312.681,492.707 317.429,492.841 "/>
<polygon fill="#F99D1E" stroke="#83CFC9" stroke-miterlimit="10" points="297.991,496.486 296.795,499.497 298.819,501.944 
	295.33,502.022 293.25,504.654 292.29,501.69 288.981,500.87 291.876,498.961 291.91,495.822 294.66,497.606 "/>
<polygon fill="#F99D1E" stroke="#83CFC9" stroke-miterlimit="10" points="281.921,495.526 279.694,498.789 281.312,502.131 
	277.298,501.417 274.168,504.03 273.914,500.325 270.361,498.597 274.218,497.022 275.153,493.342 277.791,496.073 "/>
<polygon fill="#F99D1E" stroke="#83CFC9" stroke-miterlimit="10" points="307.625,495.737 306.416,498.793 308.472,501.271 
	304.934,501.354 302.828,504.025 301.85,501.02 298.493,500.193 301.427,498.254 301.458,495.071 304.249,496.877 "/>
<polygon fill="#F99D1E" stroke="#83CFC9" stroke-miterlimit="10" points="340.267,484.606 339.434,488.255 342.266,490.762 
	338.194,491.384 336.253,494.732 334.569,491.467 330.538,491.029 333.57,488.389 333.019,484.771 336.576,486.404 "/>
<polygon fill="#F99D1E" stroke="#83CFC9" stroke-miterlimit="10" points="318.623,481.793 322.371,481.141 323.959,477.684 
	325.737,481.048 329.516,481.49 326.867,484.22 327.614,487.951 324.199,486.275 320.882,488.138 321.42,484.372 "/>
<polygon fill="#F99D1E" stroke="#83CFC9" stroke-miterlimit="10" points="302.841,485.986 306.418,482.86 305.871,478.142 
	309.949,480.578 314.268,478.6 313.211,483.231 316.427,486.727 311.696,487.153 309.365,491.292 307.498,486.924 "/>
<polygon fill="#F99D1E" stroke="#83CFC9" stroke-miterlimit="10" points="286.007,487.767 291.583,485.189 292.62,479.135 
	296.794,483.641 302.873,482.757 299.877,488.119 302.597,493.627 296.571,492.435 292.173,496.723 291.444,490.624 "/>
<polygon fill="#F99D1E" stroke="#83CFC9" stroke-miterlimit="10" points="269.805,487.723 273.202,482.601 270.908,476.899 
	276.83,478.547 281.544,474.604 281.806,480.744 287.014,484.009 281.255,486.156 279.758,492.118 275.937,487.304 "/>
<polygon fill="#F99D1E" stroke="#83CFC9" stroke-miterlimit="10" points="250.812,473.729 256.023,474.592 259.688,470.789 
	260.478,476.012 265.228,478.322 260.505,480.687 259.775,485.919 256.066,482.157 250.865,483.08 253.297,478.391 "/>
<text transform="matrix(1 0 0 1 190.1392 534.7598)" fill="#D51C53" font-family="'MyriadPro-Regular'" font-size="18">   Meklit GustHouse</text>
</svg>
